<svg width="24" height="24" viewBox="0 0 24 24" fill="none" xmlns="http://www.w3.org/2000/svg">
<path d="M14.2959 4.4541L21.0459 11.2041C21.1508 11.3086 21.234 11.4328 21.2908 11.5696C21.3476 11.7063 21.3768 11.8529 21.3768 12.001C21.3768 12.149 21.3476 12.2957 21.2908 12.4324C21.234 12.5691 21.1508 12.6933 21.0459 12.7979L14.2959 19.5479C14.0846 19.7592 13.7979 19.8779 13.4991 19.8779C13.2002 19.8779 12.9135 19.7592 12.7022 19.5479C12.4908 19.3365 12.3721 19.0499 12.3721 18.751C12.3721 18.4521 12.4908 18.1654 12.7022 17.9541L17.5313 13.125L3.75 13.125C3.45163 13.125 3.16548 13.0065 2.9545 12.7955C2.74353 12.5846 2.625 12.2984 2.625 12C2.625 11.7017 2.74353 11.4155 2.95451 11.2045C3.16548 10.9936 3.45163 10.875 3.75 10.875L17.5313 10.875L12.7013 6.04598C12.4899 5.83463 12.3712 5.54799 12.3712 5.2491C12.3712 4.95022 12.4899 4.66357 12.7013 4.45223C12.9126 4.24088 13.1992 4.12215 13.4981 4.12215C13.797 4.12215 14.0837 4.24088 14.295 4.45223L14.2959 4.4541Z" fill="black"/>
</svg>
